<svg xmlns="http://www.w3.org/2000/svg" viewBox="0 0 80 80">
  <rect x="4" y="4" width="72" height="72" fill="#ff4081"/>
  <g>
    <path d="M13.164,41.97,11.582,43.6v5.171H8.022v-22.5h3.56V39.245L12.7,37.854l4.38-4.937h4.278l-5.889,6.606,6.518,9.244H17.866Z" fill="#fff"/>
    <path d="M28.135,29.064v3.853h2.8v2.637h-2.8V44.4a1.955,1.955,0,0,0,.359,1.312,1.667,1.667,0,0,0,1.281.4,5.5,5.5,0,0,0,1.246-.146V48.72a8.811,8.811,0,0,1-2.344.337q-4.1,0-4.1-4.527V35.554H21.968V32.917h2.607V29.064Z" fill="#fff"/>
    <path d="M37.438,48.767H33.877v-22.5h3.561Z" fill="#fff"/>
    <path d="M41.319,28.8a1.889,1.889,0,0,1,.521-1.363,1.962,1.962,0,0,1,1.486-.542,1.985,1.985,0,0,1,1.494.542,1.874,1.874,0,0,1,.528,1.363,1.834,1.834,0,0,1-.528,1.341,2.346,2.346,0,0,1-2.98,0A1.845,1.845,0,0,1,41.319,28.8ZM45.1,48.767H41.54V32.917H45.1Z" fill="#fff"/>
    <path d="M52.275,32.917l.1,1.831a5.7,5.7,0,0,1,4.614-2.124q4.952,0,5.039,5.669V48.767H58.472V38.5a3.267,3.267,0,0,0-.652-2.233,2.741,2.741,0,0,0-2.132-.726,3.432,3.432,0,0,0-3.208,1.948v11.28H48.921V32.917Z" fill="#fff"/>
    <path d="M70.118,29.064v3.853h2.8v2.637h-2.8V44.4a1.945,1.945,0,0,0,.359,1.312,1.668,1.668,0,0,0,1.282.4A5.572,5.572,0,0,0,73,45.969v2.754a8.811,8.811,0,0,1-2.344.337q-4.1,0-4.1-4.527V35.554h-2.6V32.917h2.608V29.064Z" fill="#fff"/>
  </g>
</svg>
